<svg width="74" height="56" viewBox="0 0 74 56" fill="none" xmlns="http://www.w3.org/2000/svg">
<path d="M27.0392 55.2217C26.4129 55.2197 25.7936 55.0889 25.22 54.8374C24.6463 54.586 24.1305 54.2192 23.7046 53.76L1.50478 30.1441C0.674919 29.2597 0.230366 28.0819 0.268915 26.8697C0.307464 25.6576 0.825958 24.5104 1.71033 23.6805C2.59471 22.8507 3.77253 22.4061 4.98468 22.4447C6.19682 22.4832 7.34401 23.0017 8.17387 23.8861L26.9935 43.9391L65.4093 1.91463C65.7992 1.42917 66.2841 1.02853 66.8345 0.737326C67.3848 0.446119 67.9888 0.270491 68.6095 0.221229C69.2302 0.171968 69.8544 0.250113 70.4437 0.450865C71.0331 0.651617 71.5752 0.970736 72.0368 1.38862C72.4983 1.80651 72.8696 2.31435 73.1277 2.88093C73.3858 3.44752 73.5254 4.0609 73.5379 4.6834C73.5503 5.3059 73.4354 5.92437 73.2001 6.50083C72.9649 7.07729 72.6142 7.59957 72.1698 8.03558L30.4194 53.7143C29.9975 54.1819 29.4835 54.5571 28.9097 54.8165C28.3358 55.0759 27.7146 55.2139 27.0849 55.2217H27.0392Z" fill="#67C865"/>
</svg>
