<svg width="75" height="77" viewBox="0 0 75 77" fill="none" xmlns="http://www.w3.org/2000/svg">
<path d="M65.912 42.16C66.072 40.96 66.152 39.72 66.152 38.4C66.152 37.12 66.072 35.84 65.872 34.64L73.992 28.32C74.712 27.76 74.912 26.68 74.472 25.88L66.792 12.6C66.312 11.72 65.312 11.44 64.432 11.72L54.872 15.56C52.872 14.04 50.752 12.76 48.392 11.8L46.952 1.64C46.792 0.679999 45.992 0 45.032 0H29.672C28.712 0 27.952 0.679999 27.792 1.64L26.352 11.8C23.992 12.76 21.832 14.08 19.872 15.56L10.312 11.72C9.432 11.4 8.432 11.72 7.952 12.6L0.312001 25.88C-0.167999 26.72 -0.00799906 27.76 0.792001 28.32L8.912 34.64C8.712 35.84 8.552 37.16 8.552 38.4C8.552 39.64 8.632 40.96 8.832 42.16L0.712001 48.48C-0.007999 49.04 -0.207999 50.12 0.232001 50.92L7.912 64.2C8.392 65.08 9.392 65.36 10.272 65.08L19.832 61.24C21.832 62.76 23.952 64.04 26.312 65L27.752 75.16C27.952 76.12 28.712 76.8 29.672 76.8H45.032C45.992 76.8 46.792 76.12 46.912 75.16L48.352 65C50.712 64.04 52.872 62.76 54.832 61.24L64.392 65.08C65.272 65.4 66.272 65.08 66.752 64.2L74.432 50.92C74.912 50.04 74.712 49.04 73.952 48.48L65.912 42.16ZM37.352 52.8C29.432 52.8 22.952 46.32 22.952 38.4C22.952 30.48 29.432 24 37.352 24C45.272 24 51.752 30.48 51.752 38.4C51.752 46.32 45.272 52.8 37.352 52.8Z" fill="black"/>
</svg>
